<svg viewBox="0 0 36 32" fill="none" >
<path d="M18.2481 31.1834L18.2481 31.1834L18.2436 31.1859C18.1671 31.2286 18.0835 31.25 18 31.25C17.9165 31.25 17.8329 31.2286 17.7564 31.1859L17.7519 31.1834C17.4227 31.0026 13.1314 28.5764 8.93336 24.7629C4.70055 20.9178 0.750206 15.8312 0.75 10.3362C0.752869 7.78603 1.73103 5.34643 3.46171 3.55123C5.19146 1.75698 7.53073 0.752971 9.96471 0.75C13.053 0.750125 15.7282 2.12323 17.3925 4.42237L18 5.26169L18.6075 4.42237C20.2718 2.12323 22.947 0.750124 26.0353 0.75C28.4693 0.752971 30.8085 1.75698 32.5383 3.55123C34.2691 5.34652 35.2472 7.78628 35.25 10.3366C35.2496 15.8314 31.2994 20.9179 27.0666 24.7629C22.8686 28.5764 18.5773 31.0026 18.2481 31.1834Z" fill="currentColor" stroke="currentColor" />
</svg>
